<svg width="50" height="50" viewBox="0 0 50 50" fill="none" xmlns="http://www.w3.org/2000/svg">
<g clip-path="url(#clip0_143_1357)">
<path d="M27.4759 17.741C27.6285 17.5669 27.6584 17.3218 27.5555 17.1154L26.8155 15.6191C26.7159 15.4159 26.5069 15.2902 26.2779 15.2902C25.737 15.2902 25.0533 15.2902 24.2204 15.2966C23.1816 15.2999 21.9969 15.3031 20.6662 15.3031C19.5378 15.3031 18.4128 15.3031 17.2945 15.2966C16.4416 15.2966 13.5358 15.2999 12.8721 15.2966C12.5403 15.2966 12.2748 15.5578 12.2748 15.8803V17.7636C12.2748 18.0861 12.5436 18.3473 12.8754 18.3473C13.1774 18.3473 15.7148 18.3344 16.1827 18.3311C17.0622 18.3247 18.0212 18.3182 19.0633 18.3182H20.4272C20.9648 18.3182 21.5257 18.3215 22.1164 18.3311L22.1297 18.3666C20.7524 20.0628 19.3321 21.7816 17.8686 23.5262C16.498 25.1547 15.2137 26.6381 14.0091 27.9764C13.8564 28.1473 13.8199 28.3892 13.9162 28.5956L14.6131 30.108C14.7093 30.3176 14.925 30.453 15.1606 30.453C15.5024 30.453 15.9438 30.4498 16.3155 30.4466C16.4881 30.4466 16.6507 30.3724 16.7635 30.2466L19.3221 27.3702C19.3221 27.3702 23.4405 22.4814 24.8509 20.8142C26.0555 19.3921 26.9283 18.3698 27.4693 17.7475L27.4759 17.741Z" fill="#2A2E41"/>
<path d="M10.1394 32.5491C9.98677 32.7232 9.9569 32.9683 10.0598 33.1747L10.7998 34.671C10.8994 34.8742 11.1085 34.9999 11.3374 34.9999C11.8784 34.9999 12.562 34.9999 13.395 34.9935C14.4337 34.9903 15.6184 34.987 16.9492 34.987C18.0775 34.987 19.2025 34.987 20.3208 34.9935C21.1737 34.9935 28.239 34.9967 28.9027 34.9999C29.2346 34.9999 29.5 34.7387 29.5 34.4162V32.533C29.5 32.2105 29.2312 31.9493 28.8994 31.9493C28.5974 31.9493 28.2091 31.9557 27.7412 31.959C26.8618 31.9654 19.5941 31.9719 18.552 31.9719H17.1881C16.6505 31.9719 16.0896 31.9686 15.4989 31.959L15.4857 31.9235C16.8629 30.2273 18.2832 28.5085 19.7467 26.7639C21.1173 25.1354 22.4016 23.652 23.6062 22.3137C23.7589 22.1428 23.7954 21.9009 23.6992 21.6945L23.0023 20.1821C22.906 19.9725 22.6903 19.8371 22.4547 19.8371C22.1129 19.8371 21.6715 19.8403 21.2998 19.8435C21.1273 19.8435 20.9646 19.9177 20.8518 20.0435L18.2932 22.92C18.2932 22.92 14.1748 27.8087 12.7644 29.4759C11.5598 30.898 10.687 31.9203 10.1461 32.5427L10.1394 32.5491Z" fill="#2A2E41"/>
<path d="M39.9768 15.574C39.9735 15.2515 39.7014 14.9935 39.3695 15C39.0675 15.0064 38.6792 15.0129 38.2113 15.0225C37.3319 15.0419 36.3728 15.0548 35.3308 15.0677C34.9591 15.0709 34.5044 15.0774 33.9668 15.0838C33.489 15.0903 33.0542 15.0903 32.4668 15.1064C32.3772 15.1064 32.291 15.1064 32.208 15.1096C32.1748 15.1096 32.1416 15.1161 32.1117 15.1225H29.2412C28.8297 15.1225 28.5509 15.5256 28.7036 15.8965L29.5332 17.8894L29.2445 18.2215C29.2445 18.2215 25.1892 23.1586 23.7954 24.842C22.6073 26.277 21.7478 27.3089 21.2168 27.9377L19.5907 29.6598C19.3186 29.9468 19.5343 30.4143 19.9359 30.4079L22.4281 30.3724C22.4281 30.3724 22.4381 30.3724 22.4447 30.3724C22.6637 30.3724 23.2644 30.366 23.6825 30.3628C23.8651 30.3628 24.0376 30.2789 24.1538 30.1402L26.5531 27.2509C27.9071 25.5385 29.3075 23.8036 30.7478 22.0429C31.9193 20.6111 33.0277 19.2986 34.0764 18.0925C35.1018 18.0796 36.1206 18.0699 37.1394 18.0603C37.9923 18.0538 38.7489 18.0474 39.4126 18.0377C39.7445 18.0345 40.0067 17.77 40.0033 17.4476L39.9801 15.5643L39.9768 15.574Z" fill="#2A2E41"/>
</g>
<defs>
<clipPath id="clip0_143_1357">
<rect width="30" height="20" fill="white" transform="translate(10 15)"/>
</clipPath>
</defs>
</svg>
