<svg width="42" height="42" viewBox="0 0 42 42" fill="none" xmlns="http://www.w3.org/2000/svg">
<path fill-rule="evenodd" clip-rule="evenodd" d="M31.5 7H10.5C6.63401 7 3.5 10.134 3.5 14V29.75C3.5 33.616 6.63401 36.75 10.5 36.75H31.5C35.366 36.75 38.5 33.616 38.5 29.75V14C38.5 10.134 35.366 7 31.5 7ZM10.5 9.7825H31.5C33.365 9.78606 35.0043 11.0191 35.525 12.81L22.33 22.5925C21.9684 22.9461 21.4781 23.1367 20.9726 23.1201C20.4671 23.1036 19.9903 22.8814 19.6525 22.505L6.51 12.8275C7.02057 11.042 8.64308 9.80379 10.5 9.7825ZM6.2825 29.75C6.2825 32.0793 8.17074 33.9675 10.5 33.9675H31.5C33.8224 33.9579 35.7 32.0724 35.7 29.75V15.6975L23.8 24.4475C23.0395 25.1555 22.0391 25.5494 21 25.55C19.9198 25.5328 18.8845 25.1149 18.095 24.3775L6.2825 15.6275V29.75Z" fill="#49527E"/>
</svg>
