<svg width="42" height="42" viewBox="0 0 42 42" fill="none" xmlns="http://www.w3.org/2000/svg">
<path fill-rule="evenodd" clip-rule="evenodd" d="M14 3.5H27.475C33.274 3.5 37.975 8.20101 37.975 14V27.475C37.975 33.274 33.274 37.975 27.475 37.975H14C8.20101 37.975 3.5 33.274 3.5 27.475V14C3.5 8.20101 8.20101 3.5 14 3.5ZM35.35 14C35.3404 9.65475 31.8202 6.13462 27.475 6.125H14C9.65475 6.13462 6.13462 9.65475 6.125 14V27.475C6.13462 31.8202 9.65475 35.3404 14 35.35H27.475C31.8202 35.3404 35.3404 31.8202 35.35 27.475V14Z" fill="#49527E"/>
<path fill-rule="evenodd" clip-rule="evenodd" d="M13.2125 20.7375C13.2221 16.5856 16.5856 13.2221 20.7375 13.2125C24.8895 13.2221 28.2529 16.5856 28.2625 20.7375C28.2625 24.8934 24.8934 28.2625 20.7375 28.2625C16.5816 28.2625 13.2125 24.8934 13.2125 20.7375ZM25.6375 20.7375C25.6375 18.0313 23.4437 15.8375 20.7375 15.8375C18.0353 15.8471 15.8471 18.0353 15.8375 20.7375C15.8375 23.4437 18.0313 25.6375 20.7375 25.6375C23.4437 25.6375 25.6375 23.4437 25.6375 20.7375Z" fill="#49527E"/>
<path d="M27.1425 11.3837C27.1425 10.3351 27.9926 9.485 29.0412 9.485C30.0899 9.485 30.94 10.3351 30.94 11.3837C30.94 12.4324 30.0899 13.2825 29.0412 13.2825C27.9926 13.2825 27.1425 12.4324 27.1425 11.3837Z" fill="#49527E"/>
</svg>
