<svg width="42" height="42" viewBox="0 0 42 42" fill="none" xmlns="http://www.w3.org/2000/svg">
<path fill-rule="evenodd" clip-rule="evenodd" d="M13.2271 14.0001C11.4076 14.0153 9.58762 14.012 7.76794 14.0019C7.25379 13.9988 6.99906 14.1763 7 14.7615C7.01139 21.2866 7.00697 27.8118 7.00831 34.3368C7.00844 34.5853 6.97039 34.8582 7.2763 34.9713C7.28796 35.0111 13.7028 35.0086 13.7201 34.9691C14.0577 34.8377 13.9897 34.5315 13.9898 34.2669C13.9928 27.7878 13.9875 21.3085 14 14.8294C14.0009 14.2415 13.7997 13.9952 13.2271 14.0001Z" fill="#49527E"/>
<path fill-rule="evenodd" clip-rule="evenodd" d="M10.4999 5.25C8.56706 5.25 7 6.81706 7 8.74994C7 10.6831 8.56706 12.25 10.4999 12.25C12.4329 12.25 14 10.6831 14 8.74994C14 6.81706 12.4329 5.25 10.4999 5.25Z" fill="#49527E"/>
<path fill-rule="evenodd" clip-rule="evenodd" d="M36.6592 33.9941C36.6634 30.6495 36.6804 27.3048 36.6532 23.9605C36.6413 22.4955 36.5887 21.0268 36.2808 19.585C35.7762 17.2211 34.6404 15.3756 32.3844 14.515C30.8793 13.9409 29.3057 13.904 27.734 14.1265C26.4137 14.3135 25.1974 14.8164 24.0894 15.7511C24.0894 15.411 24.0882 15.1855 24.0896 14.9602C24.093 14.4543 23.8576 14.2256 23.3726 14.228C21.6489 14.236 19.9252 14.234 18.2015 14.2293C17.727 14.228 17.4994 14.4239 17.5 14.9572C17.5091 21.3752 17.5057 27.7931 17.506 34.2111C17.506 34.4572 17.4736 34.719 17.7584 34.8403C17.7885 34.88 24.0114 34.8948 24.0112 34.8543C24.4193 34.671 24.2938 34.284 24.2945 33.969C24.3002 30.8036 24.2812 27.6381 24.2982 24.4727C24.3034 23.4828 24.34 22.4829 24.7675 21.5612C25.2741 20.469 26.3226 19.9959 27.7994 20.1895C28.8154 20.3226 29.4639 21.0105 29.6657 22.209C29.7405 22.6518 29.7965 23.1045 29.7991 23.553C29.8188 27.035 29.8216 30.5169 29.836 33.9988C29.8374 34.3203 29.7409 34.7 30.1551 34.8615C30.1409 34.9072 36.4068 34.8795 36.4084 34.8354C36.7456 34.6387 36.6588 34.2959 36.6592 33.9941Z" fill="#49527E"/>
</svg>
