<svg width="42" height="42" viewBox="0 0 42 42" fill="none" xmlns="http://www.w3.org/2000/svg">
<path fill-rule="evenodd" clip-rule="evenodd" d="M7.99417 31.9984C9.99617 32.7666 12.2152 33.0781 12.2397 33.0816C12.2904 33.0904 14.4674 33.4456 18.2439 32.8699C21.9627 32.3029 25.1704 29.8896 25.2019 29.8651C25.3122 29.7934 27.7184 28.3234 30.3207 23.9204C32.9107 19.5366 32.4679 14.5806 32.4627 14.5316C32.4364 14.2551 32.5397 13.9839 32.7462 13.7984C32.7462 13.7984 33.2817 13.3084 33.9957 12.7256C33.5039 12.8149 33.0752 12.8779 32.9912 12.8901C32.5852 12.9409 32.2107 12.7291 32.0567 12.3616C31.9044 11.9924 32.0182 11.5671 32.3367 11.3256C32.3472 11.3204 32.8722 10.9196 33.5197 10.3579C32.5817 10.6746 31.7837 10.8199 31.7364 10.8286C31.3584 10.8881 30.9927 10.7149 30.8159 10.3859C30.8212 10.4314 30.5184 10.1479 29.4492 9.43388C28.4114 8.74263 26.6194 8.71463 26.0174 8.76363C26.0174 8.76363 23.5464 9.07163 22.0379 11.1716C20.5417 13.2524 21.1507 15.7461 21.1559 15.7724C21.2277 16.0471 21.1594 16.3394 20.9757 16.5564C20.7919 16.7716 20.5067 16.8784 20.2337 16.8626L18.5939 16.7209C18.2719 16.6964 16.4624 16.3866 14.6267 15.7374C12.7857 15.0881 11.6867 14.4126 10.1659 13.4799C9.14917 12.8569 7.80342 11.5531 6.91967 10.6466C6.64842 11.4919 6.43842 12.7414 6.87767 14.0766C7.58642 16.2396 9.12117 17.1391 9.13517 17.1479C9.46417 17.3281 9.63917 17.6991 9.57267 18.0684C9.50617 18.4376 9.21217 18.7229 8.83942 18.7771C8.66792 18.8086 8.23217 18.8174 7.26967 18.6179C7.08592 18.5811 6.90567 18.5356 6.73592 18.4814C6.89342 19.1621 7.26442 20.1929 8.13592 21.0976C9.58142 22.6026 11.0444 22.7934 11.1057 22.8004C11.5362 22.8511 11.8687 23.2116 11.8809 23.6456C11.8932 24.0796 11.5904 24.4541 11.1652 24.5311C11.1652 24.5311 10.1677 24.7096 9.54292 24.7709C9.51492 24.7726 9.48692 24.7761 9.45717 24.7779C9.50967 24.8636 9.56392 24.9494 9.61817 25.0316C9.63392 25.0579 10.4494 26.3371 11.8109 26.9374C13.1899 27.5446 14.1192 27.4956 14.1262 27.4921C14.5164 27.4589 14.8717 27.6934 15.0082 28.0521C15.1447 28.4126 15.0362 28.8186 14.7317 29.0531C14.6669 29.1056 13.1112 30.3009 10.4984 31.3719C9.68642 31.7026 8.82542 31.8951 7.99417 31.9984ZM14.1927 34.9506C12.7944 34.9506 12.0227 34.8194 11.9684 34.8089C11.8879 34.8001 9.20167 34.4221 6.89342 33.4404C3.33042 31.9301 3.43367 31.4261 3.53342 30.9396C3.62267 30.5004 4.13367 30.1819 4.58167 30.2501C6.57667 30.4846 8.49117 30.3009 9.83517 29.7514C10.5964 29.4399 11.2614 29.1161 11.8144 28.8186C11.5887 28.7399 11.3524 28.6471 11.1057 28.5386C9.23492 27.7144 8.18317 26.0396 8.13942 25.9679C7.95042 25.6774 7.47092 24.9126 7.33442 24.4646C7.20667 24.0411 7.19442 23.9904 7.19442 23.9904C7.13142 23.6999 7.21892 23.3884 7.42717 23.1784C7.49017 23.1136 7.56367 23.0611 7.64242 23.0174C7.38692 22.8109 7.12967 22.5764 6.87417 22.3121C4.94742 20.3066 4.87392 17.8951 4.87217 17.7936L4.83892 17.1286C4.82317 16.8049 4.98767 16.5004 5.26592 16.3341C5.47417 16.2099 5.72267 16.1819 5.95017 16.2431C5.67192 15.7776 5.41642 15.2404 5.21517 14.6209C4.16517 11.4289 5.84342 8.73213 5.91692 8.62013C6.06217 8.38738 6.30892 8.23863 6.58017 8.21588C6.85667 8.19138 7.12092 8.29813 7.30467 8.50113C7.96092 9.23088 9.92092 11.2766 11.0812 11.9871C12.5634 12.8989 13.5434 13.4991 15.2094 14.0871C16.9227 14.6926 18.5694 14.9621 18.7304 14.9761L19.2922 15.0251C19.2169 13.8246 19.3534 11.9066 20.6169 10.1496C22.5927 7.40038 25.7217 7.03463 25.8547 7.02238C25.9877 7.00838 28.6599 6.80538 30.4204 7.97788C31.1327 8.45388 31.5754 8.78113 31.8554 9.01388C32.3507 8.89838 33.1942 8.66738 33.9239 8.30863L35.4027 7.57888C35.7159 7.41788 36.0939 7.46338 36.3634 7.69438C36.6312 7.92363 36.7344 8.29113 36.6294 8.62713C36.5857 8.75663 36.3074 9.59663 35.8104 10.3964C36.1184 10.2756 36.3512 10.1776 36.3547 10.1759C36.7152 10.0324 37.1264 10.1339 37.3714 10.4331C37.6147 10.7359 37.6304 11.1611 37.4117 11.4796C37.2944 11.6511 36.2339 13.1754 35.3449 13.8859C34.8952 14.2464 34.4944 14.5894 34.2337 14.8169C34.2967 16.2379 34.2669 20.6811 31.8292 24.8094C28.9679 29.6516 26.2869 31.2511 26.1749 31.3159C26.1189 31.3666 22.6802 33.9636 18.5082 34.5989C16.7249 34.8736 15.2724 34.9506 14.1927 34.9506Z" fill="#49527E"/>
</svg>
